<svg id="Capa_1" enable-background="new 0 0 512 512" height="512" viewBox="0 0 512 512" width="512" xmlns="http://www.w3.org/2000/svg"><g><g><g><g><g><g><g><g><g><circle cx="256" cy="256" fill="#96e8ff" r="256"/></g></g></g></g></g></g></g></g><path d="m512 256c0-6.419-.237-12.783-.701-19.084l-130.514-130.515-30.47 14.729-51.281-51.281-63.998 9.898-15.645 69.639 41.084 41.084-110.379 23.614-29.189 152.702 145.024 145.024c136.782-5.217 246.069-117.751 246.069-255.81z" fill="#19cffc"/><path d="m339.95 91.401h-46.96v30h46.96c18.315 0 33.217 14.901 33.217 33.217v3.759c0 18.316-14.901 33.217-33.217 33.217h-70.37v30h70.371c34.857 0 63.217-28.359 63.217-63.217v-3.759c-.001-34.857-28.36-63.217-63.218-63.217z" fill="#e9edf5"/><g><path d="m255.986 288.029h59.205v30h-59.205z" fill="#e9edf5"/></g><path d="m374.65 242.84v30.741c0 33.822-47.85 71.96-90.15 97.271v-215.69c16.732-9.817 27.99-27.999 27.99-48.76 0-31.148-25.342-56.49-56.49-56.49s-56.49 25.341-56.49 56.49c0 20.762 11.258 38.943 27.99 48.76v36.437l-3.857 14.426 3.857 15.559v149.266c-42.307-25.314-90.15-63.449-90.15-97.269v-30.741l-61.481 30.741c0 44.163 29.476 87.534 87.61 128.91 39.457 28.082 78.493 45.39 80.135 46.112l12.386 5.453 12.386-5.453c1.643-.723 40.679-18.031 80.135-46.112 58.134-41.376 87.61-84.748 87.61-128.91zm-118.65-153.928c9.645 0 17.49 7.846 17.49 17.49s-7.846 17.49-17.49 17.49-17.49-7.846-17.49-17.49 7.845-17.49 17.49-17.49z" fill="#555a66"/><path d="m374.65 242.84v30.741c0 33.822-47.85 71.96-90.15 97.271v-215.69c16.732-9.817 27.99-27.999 27.99-48.76 0-31.148-25.342-56.49-56.49-56.49-.005 0-.009 0-.014 0v39h.014c9.645 0 17.49 7.846 17.49 17.49s-7.846 17.49-17.49 17.49c-.005 0-.009-.001-.014-.001v19.501 19.5 223.593 11.676 55.89l.014.006 12.386-5.453c1.643-.723 40.679-18.031 80.135-46.112 58.134-41.376 87.61-84.748 87.61-128.91z" fill="#333940"/><g><path d="m177.055 288.029c-18.315 0-33.217-14.901-33.217-33.217s14.901-33.217 33.217-33.217h50.445v-30h-50.445c-34.857 0-63.217 28.359-63.217 63.217s28.359 63.217 63.217 63.217h138.135v-30z" fill="#fff"/></g></g></svg>