<svg height="512pt" viewBox="0 -16 512 512" width="512pt" xmlns="http://www.w3.org/2000/svg"><path d="m91 0v90h15c24.902344 0 45 20.097656 45 45v195h210v-195c0-24.902344 20.097656-45 45-45h15v-90zm0 0" fill="#465a61"/><path d="m421 0v90h-15c-24.902344 0-45 20.097656-45 45v195h-105v-330zm0 0" fill="#3b4a51"/><path d="m512 450v30h-15c-17.101562-.300781-33.402344-8.699219-42.699219-22.800781-8.101562-12-27-12-35.101562 0-9.597657 14.398437-25.199219 22.800781-42.597657 22.800781-17.097656 0-32.699218-8.402344-42.300781-22.800781-8.097656-12-27-12-35.097656 0-9.601563 14.398437-25.203125 22.800781-42.601563 22.800781-.296874 0-.296874 0-.597656 0-16.800781-.300781-32.101562-8.699219-41.703125-22.800781-8.097656-12-26.996093-12-35.097656 0-9.601563 14.398437-25.199219 22.800781-42.597656 22.800781-17.101563 0-32.703125-8.402344-42.300781-22.800781-8.101563-12-27-12-35.101563 0-9.597656 14.699219-26.199219 22.5-44.5 22.800781h-14.703125v-30h15c7.800781.300781 15.097656-3.300781 19.300781-9.300781 9.597657-14.398438 25.199219-22.800781 42.300781-22.800781 17.398438 0 33 8.402343 42.597657 22.800781 8.101562 11.699219 27 11.699219 35.101562 0 9.597657-14.398438 25.199219-22.800781 42.300781-22.800781 17.398438 0 32.996094 8.402343 42.597657 22.800781 4.199219 5.402343 10.5 8.398437 16.800781 8.699219 7.199219.300781 14.097656-2.699219 18.300781-8.699219 9.597657-14.398438 25.199219-22.800781 42.300781-22.800781 17.398438 0 32.996094 8.402343 42.597657 22.800781 8.101562 11.699219 27 11.699219 35.097656 0 9.601563-14.398438 25.203125-22.800781 42.300781-22.800781 17.398438 0 34 8.402343 43.601563 22.800781 3.898437 5.699219 10.199219 9.300781 17.097656 9.300781zm0 0" fill="#8cf2f2"/><path d="m512 450v30h-15c-17.101562-.300781-33.402344-8.699219-42.699219-22.800781-8.101562-12-27-12-35.101562 0-9.597657 14.398437-25.199219 22.800781-42.597657 22.800781-17.097656 0-32.699218-8.402344-42.300781-22.800781-8.097656-12-27-12-35.097656 0-9.601563 14.398437-25.203125 22.800781-42.601563 22.800781-.296874 0-.296874 0-.597656 0v-30.601562c7.199219.300781 14.097656-2.699219 18.296875-8.699219 9.601563-14.398438 25.203125-22.800781 42.300781-22.800781 17.402344 0 33 8.402343 42.601563 22.800781 8.101563 11.699219 27 11.699219 35.097656 0 9.601563-14.398438 25.203125-22.800781 42.300781-22.800781 17.398438 0 34 8.402343 43.597657 22.800781 3.902343 5.699219 10.203125 9.300781 17.101562 9.300781zm0 0" fill="#57d9d4"/><path d="m0 300v90h512v-90zm0 0" fill="#596c76"/><path d="m256 300h256v90h-256zm0 0" fill="#465a61"/><path d="m391 180c0 16.5-13.5 30-30 30l-32.402344 30h-140.097656l-37.5-30c-16.5 0-30-13.5-30-30s13.5-30 30-30h210c16.5 0 30 13.5 30 30zm0 0" fill="#ffda2d"/><path d="m328.597656 240h-72.597656v-90h105c16.5 0 30 13.5 30 30s-13.5 30-30 30zm0 0" fill="#fdbf00"/><path d="m512 210v60h-361c-16.5 0-30-13.5-30-30s13.5-30 30-30zm0 0" fill="#fdbf00"/><path d="m256 210h256v60h-256zm0 0" fill="#ff9100"/></svg>