<svg height="512" viewBox="0 0 64 64" width="512" xmlns="http://www.w3.org/2000/svg"><g id="Layer_5" data-name="Layer 5"><circle cx="32" cy="32" fill="#e47c6f" r="30"/><path d="m51.29 46.29a24 24 0 0 0 -33.58-33.58z" fill="#fff"/><path d="m12.71 17.71a24 24 0 0 0 33.58 33.58z" fill="#fff"/><g fill="#a0a8b2"><path d="m28 41a4 4 0 0 0 8 0l-4-4a4 4 0 0 0 -4 4z"/><path d="m38.82 34 2.73-2.84a13.19 13.19 0 0 0 -9.55-4.16z"/><path d="m24.45 29.44a14.19 14.19 0 0 0 -2 1.72l2.73 2.84a9.4 9.4 0 0 1 2.14-1.68z"/><path d="m25.17 20.17a20.37 20.37 0 0 1 6.83-1.17 20.72 20.72 0 0 1 15 6.47l-2.73 2.85a16.93 16.93 0 0 0 -12.27-5.32 16.39 16.39 0 0 0 -3.59.39z"/><path d="m21.61 26.61a17.8 17.8 0 0 0 -1.88 1.71l-2.73-2.85a21.83 21.83 0 0 1 1.8-1.67z"/></g></g></svg>